<svg width="14" height="14" viewBox="0 0 14 14" fill="none" xmlns="http://www.w3.org/2000/svg">
<path d="M6.99976 0.449951C10.6197 0.449951 13.5495 3.37984 13.5496 6.99976C13.5496 10.6198 10.6198 13.5496 6.99976 13.5496C3.37985 13.5494 0.449951 10.6197 0.449951 6.99976C0.45005 3.37991 3.37992 0.450066 6.99976 0.449951ZM10.2205 4.43042C10.0105 4.43042 9.81968 4.50991 9.66968 4.65991L6.23999 8.11987L4.35034 6.21948C4.20035 6.06951 4.00954 5.98999 3.79956 5.98999C3.58978 5.9901 3.39964 6.06964 3.24976 6.21948C2.94981 6.52943 2.94992 7.02982 3.24976 7.32983L5.5896 9.69019C5.7596 9.86019 5.99022 9.95972 6.23022 9.95972L6.23999 9.94995C6.47979 9.94995 6.70968 9.85016 6.87964 9.68042L10.7703 5.77026C11.0702 5.46031 11.0701 4.95993 10.7703 4.65991C10.6204 4.51002 10.4303 4.43054 10.2205 4.43042Z" fill="#18181B"/>
</svg>
