<svg width="14" height="16" viewBox="0 0 14 16" fill="none" xmlns="http://www.w3.org/2000/svg">
<path d="M3.11365 4.11364C3.11365 1.97 4.85638 0.227272 7.00002 0.227272C9.14365 0.227272 10.8864 1.97 10.8864 4.11364C10.8864 6.25727 9.14365 8 7.00002 8C4.85638 8 3.11365 6.25727 3.11365 4.11364Z" fill="#18181B"/>
<path d="M0.225488 14.7418C0.454579 15.1345 0.847307 15.3636 1.28094 15.3636H12.7028C13.1364 15.3636 13.5291 15.1345 13.7582 14.7418C13.9873 14.3655 14.0037 13.8991 13.8237 13.5064C12.7273 11.1582 9.85549 9.63636 6.99185 9.63636C4.12822 9.63636 1.2564 11.15 0.160034 13.5064C-0.0199663 13.9073 0.00457909 14.3655 0.225488 14.7418Z" fill="#18181B"/>
</svg>
