<svg width="16" height="16" viewBox="0 0 16 16" fill="none" xmlns="http://www.w3.org/2000/svg">
<g clip-path="url(#clip0_40_65)">
<path d="M7.11105 9.11106C7.11105 8.62128 7.51016 8.22217 7.99994 8.22217C8.48972 8.22217 8.88883 8.62128 8.88883 9.11106C8.88883 9.60083 8.48972 9.99995 7.99994 9.99995C7.51016 9.99995 7.11105 9.60083 7.11105 9.11106Z" fill="#71717A"/>
<path d="M11.1111 9.99995C11.6009 9.99995 12 9.60083 12 9.11106C12 8.62128 11.6009 8.22217 11.1111 8.22217C10.6213 8.22217 10.2222 8.62128 10.2222 9.11106C10.2222 9.60083 10.6213 9.99995 11.1111 9.99995Z" fill="#71717A"/>
<path d="M7.11105 11.7778C7.11105 11.288 7.51016 10.8889 7.99994 10.8889C8.48972 10.8889 8.88883 11.288 8.88883 11.7778C8.88883 12.2676 8.48972 12.6667 7.99994 12.6667C7.51016 12.6667 7.11105 12.2676 7.11105 11.7778Z" fill="#71717A"/>
<path d="M4.88886 10.8889C4.39908 10.8889 3.99997 11.288 3.99997 11.7778C3.99997 12.2676 4.39908 12.6667 4.88886 12.6667C5.37864 12.6667 5.77775 12.2676 5.77775 11.7778C5.77775 11.288 5.37864 10.8889 4.88886 10.8889Z" fill="#71717A"/>
<path d="M10.2222 11.7778C10.2222 11.288 10.6213 10.8889 11.1111 10.8889C11.6009 10.8889 12 11.288 12 11.7778C12 12.2676 11.6009 12.6667 11.1111 12.6667C10.6213 12.6667 10.2222 12.2676 10.2222 11.7778Z" fill="#71717A"/>
<path fill-rule="evenodd" clip-rule="evenodd" d="M5.11105 0.805664C5.52527 0.805664 5.86105 1.14145 5.86105 1.55566V2.58325H10.1389V1.55566C10.1389 1.14145 10.4747 0.805664 10.8889 0.805664C11.3031 0.805664 11.6389 1.14145 11.6389 1.55566V2.58325H12.2222C13.6182 2.58325 14.75 3.71498 14.75 5.11103V12.6666C14.75 14.0626 13.6182 15.1944 12.2222 15.1944H3.77775C2.38169 15.1944 1.24997 14.0626 1.24997 12.6666V5.11103C1.24997 3.71498 2.38169 2.58325 3.77775 2.58325H4.36105V1.55566C4.36105 1.14145 4.69684 0.805664 5.11105 0.805664ZM13.25 5.11103V5.69458H2.74997V5.11103C2.74997 4.5434 3.21012 4.08325 3.77775 4.08325H5.09401L5.11105 4.08344L5.12809 4.08325H10.8718L10.8889 4.08344L10.9059 4.08325H12.2222C12.7898 4.08325 13.25 4.5434 13.25 5.11103ZM13.25 7.19458H2.74997V12.6666C2.74997 13.2342 3.21012 13.6944 3.77775 13.6944H12.2222C12.7898 13.6944 13.25 13.2342 13.25 12.6666V7.19458Z" fill="#71717A"/>
</g>
<defs>
<clipPath id="clip0_40_65">
<rect width="15" height="15" fill="white" transform="translate(0.5 0.5)"/>
</clipPath>
</defs>
</svg>
