<svg width="14" height="14" viewBox="0 0 14 14" fill="none" xmlns="http://www.w3.org/2000/svg">
<path fill-rule="evenodd" clip-rule="evenodd" d="M6.99997 0.450012C3.37997 0.450012 0.449951 3.38 0.449951 7C0.449951 10.62 3.37997 13.55 6.99997 13.55C10.62 13.55 13.55 10.62 13.55 7C13.55 3.38 10.62 0.450012 6.99997 0.450012ZM9.88995 8.77997C10.04 8.92997 10.12 9.11996 10.12 9.32996C10.12 9.53996 10.04 9.74 9.88995 9.88C9.73995 10.03 9.54997 10.11 9.33997 10.11C9.12997 10.11 8.92995 10.03 8.78995 9.88L7.00995 8.09998L5.22995 9.88C5.07995 10.03 4.88996 10.11 4.67996 10.11C4.46996 10.11 4.26994 10.03 4.12994 9.88C3.97994 9.73001 3.89996 9.53996 3.89996 9.32996C3.89996 9.11996 3.97994 8.91997 4.12994 8.77997L5.90994 7L4.12994 5.21997C3.97994 5.06997 3.89996 4.87998 3.89996 4.66998C3.89996 4.45998 3.97994 4.26 4.12994 4.12C4.27994 3.97 4.46996 3.89001 4.67996 3.89001C4.88996 3.89001 5.08995 3.97 5.22995 4.12L7.00995 5.89996L8.78995 4.12C8.93995 3.97 9.12997 3.89001 9.33997 3.89001C9.54997 3.89001 9.74995 3.97 9.88995 4.12C10.03 4.27 10.12 4.45998 10.12 4.66998C10.12 4.87998 10.04 5.07997 9.88995 5.21997L8.10995 7L9.88995 8.77997Z" fill="#18181B"/>
</svg>
