<svg width="63" height="24" viewBox="0 0 63 24" fill="none" xmlns="http://www.w3.org/2000/svg">
<path d="M61.5 1C51.7519 1.59572 51.1482 15.8575 41.5 17.5C33.5438 18.8544 29.5151 11.166 21.5 12C12.8064 12.9046 10.0244 20.9162 1.5 23H61.5V1Z" fill="#ECFDF3"/>
<path d="M61.5 1C51.7519 1.59572 51.1482 15.8575 41.5 17.5C33.5438 18.8544 29.5151 11.166 21.5 12C12.8064 12.9046 10.0244 20.9162 1.5 23H61.5V1Z" fill="url(#paint0_linear_110_876)"/>
<path d="M1.5 23C10.0244 20.9162 12.8064 12.9046 21.5 12C29.5151 11.166 33.5439 18.8544 41.5 17.5C51.1482 15.8575 51.7519 1.59572 61.5 1" stroke="#12B76A" stroke-width="2" stroke-linecap="round" stroke-linejoin="round"/>
<defs>
<linearGradient id="paint0_linear_110_876" x1="31.5" y1="1" x2="31.5" y2="23" gradientUnits="userSpaceOnUse">
<stop offset="0.641167" stop-color="white" stop-opacity="0"/>
<stop offset="1" stop-color="white"/>
</linearGradient>
</defs>
</svg>
