<svg width="23" height="22" viewBox="0 0 23 22" fill="none" xmlns="http://www.w3.org/2000/svg">
<path d="M12.8998 3.07L18.2998 8.32C19.0698 9.07 19.5098 10.11 19.5098 11.19V17.5C19.5098 18.6 18.6098 19.5 17.5098 19.5H14.2598C13.7098 19.5 13.2598 19.05 13.2598 18.5V15.09C13.2598 14.68 12.9198 14.34 12.5098 14.34H10.5098C10.0998 14.34 9.75977 14.68 9.75977 15.09V18.5C9.75977 19.05 9.30977 19.5 8.75977 19.5H5.50977C4.40977 19.5 3.50977 18.6 3.50977 17.5V11.19C3.50977 10.11 3.94977 9.08 4.71977 8.32L10.1198 3.07C10.8998 2.31 12.1298 2.31 12.9098 3.07H12.8998Z" fill="#18181B"/>
</svg>
