<svg width="23" height="22" viewBox="0 0 23 22" fill="none" xmlns="http://www.w3.org/2000/svg">
<path d="M17.1781 19.5098H14.2564C13.3859 19.5098 12.6755 18.7994 12.6755 17.9289V14.5069H10.3441V17.9289C10.3441 18.7994 9.63366 19.5098 8.76315 19.5098H5.84143C4.28051 19.5098 3.00977 18.239 3.00977 16.6781V11.2951C3.00977 9.99433 3.54008 8.73361 4.47063 7.83309L9.5336 2.82023C10.6443 1.73961 12.3753 1.73961 13.4859 2.82023L18.5489 7.83309C19.4795 8.73361 20.0098 10.0043 20.0098 11.2951V16.6781C20.0098 18.239 18.739 19.5098 17.1781 19.5098ZM14.3364 17.8388H17.1681C17.8085 17.8388 18.3388 17.3185 18.3388 16.6681V11.2851C18.3388 10.4346 17.9886 9.60411 17.3782 9.01377L12.3152 4.0009C11.855 3.56065 11.1446 3.56065 10.6843 4.0009L5.6213 9.01377C5.01094 9.60411 4.66074 10.4346 4.66074 11.2851V16.6681C4.66074 17.3085 5.18104 17.8388 5.83143 17.8388H8.66309V14.4169C8.66309 13.5464 9.37351 12.836 10.244 12.836H12.7455C13.616 12.836 14.3264 13.5464 14.3264 14.4169V17.8388H14.3364Z" fill="#9DA1AE"/>
</svg>
