<svg width="353" height="227" viewBox="0 0 353 227" fill="none" xmlns="http://www.w3.org/2000/svg">
<rect x="0.00539941" y="-0.93659" width="42.2339" height="82.5768" rx="8.50982" transform="matrix(0.865865 0.500278 -0.871576 0.490261 239.728 111.031)" fill="#D4D4D8" stroke="#52525B" stroke-width="1.89107"/>
<rect x="0.00539941" y="-0.93659" width="42.2339" height="82.5768" rx="8.50982" transform="matrix(0.865865 0.500278 -0.871575 0.490261 239.728 107.249)" fill="white" stroke="#52525B" stroke-width="1.89107"/>
<path d="M227.658 135.076L225.827 136.106" stroke="#52525B" stroke-width="1.89107" stroke-linecap="round" stroke-linejoin="round"/>
<path opacity="0.88" d="M229.834 138.106L227.253 138.091" stroke="#52525B" stroke-width="1.89107" stroke-linecap="round" stroke-linejoin="round"/>
<path opacity="0.75" d="M227.624 141.111L225.804 140.06" stroke="#52525B" stroke-width="1.89107" stroke-linecap="round" stroke-linejoin="round"/>
<path opacity="0.63" d="M222.323 142.331L222.331 140.859" stroke="#52525B" stroke-width="1.89107" stroke-linecap="round" stroke-linejoin="round"/>
<path opacity="0.5" d="M217.037 141.05L218.868 140.02" stroke="#52525B" stroke-width="1.89107" stroke-linecap="round" stroke-linejoin="round"/>
<path opacity="0.38" d="M214.861 138.02L217.442 138.035" stroke="#52525B" stroke-width="1.89107" stroke-linecap="round" stroke-linejoin="round"/>
<path opacity="0.25" d="M217.071 135.015L218.891 136.066" stroke="#52525B" stroke-width="1.89107" stroke-linecap="round" stroke-linejoin="round"/>
<path opacity="0.13" d="M222.372 133.795L222.364 135.267" stroke="#52525B" stroke-width="1.89107" stroke-linecap="round" stroke-linejoin="round"/>
<rect width="15.1286" height="3.78214" rx="1.89107" transform="matrix(0.865865 0.500277 -0.871576 0.490261 248.163 116.354)" fill="#D4D4D8"/>
<rect x="0.00539941" y="-0.93659" width="42.2339" height="82.5768" rx="8.50982" transform="matrix(0.865865 0.500278 -0.871576 0.490261 148.033 58.0514)" fill="#D4D4D8" stroke="#52525B" stroke-width="1.89107"/>
<rect x="0.00539941" y="-0.93659" width="42.2339" height="82.5768" rx="8.50982" transform="matrix(0.865865 0.500278 -0.871576 0.490261 148.033 54.2692)" fill="white" stroke="#52525B" stroke-width="1.89107"/>
<rect width="15.1286" height="3.78214" rx="1.89107" transform="matrix(0.865865 0.500278 -0.871575 0.490261 156.468 63.3749)" fill="#D4D4D8"/>
<rect width="21.4321" height="3.78214" rx="1.89107" transform="matrix(0.865865 0.500278 -0.871576 0.490261 123.49 84.4149)" fill="#D4D4D8"/>
<rect width="15.1286" height="3.78214" rx="1.89107" transform="matrix(0.865865 0.500278 -0.871575 0.490261 117.996 87.5053)" fill="#D4D4D8"/>
<path d="M116.44 80.6306C114.634 79.5871 111.687 79.5702 109.869 80.5928C108.051 81.6154 108.041 83.2956 109.847 84.3391C111.653 85.3826 114.6 85.3996 116.418 84.377C118.236 83.3544 118.246 81.6742 116.44 80.6306ZM111.495 83.412C110.592 82.8904 110.597 82.05 111.506 81.5388C112.415 81.0277 113.889 81.0362 114.792 81.5578C115.694 82.0794 115.69 82.9198 114.781 83.4309C113.872 83.9421 112.398 83.9336 111.495 83.412Z" fill="#A1A1AA"/>
<rect width="21.4321" height="3.78214" rx="1.89107" transform="matrix(0.865865 0.500277 -0.871576 0.490261 138.873 75.7618)" fill="#A1A1AA"/>
<rect width="15.1286" height="3.78214" rx="1.89107" transform="matrix(0.865865 0.500278 -0.871575 0.490261 133.379 78.8522)" fill="#A1A1AA"/>
<path d="M131.823 71.9776C130.017 70.9341 127.07 70.9171 125.252 71.9397C123.434 72.9623 123.424 74.6425 125.23 75.686C127.036 76.7295 129.984 76.7465 131.802 75.7239C133.62 74.7013 133.629 73.0211 131.823 71.9776ZM130.936 74.2525L127.099 74.5416C126.932 74.5544 126.764 74.525 126.637 74.4615C126.626 74.4559 126.616 74.4508 126.607 74.4451C126.499 74.3827 126.437 74.2984 126.438 74.2103L126.441 73.2728C126.442 73.0901 126.703 72.943 127.024 72.9449C127.345 72.9467 127.605 73.0962 127.604 73.2798L127.602 73.8361L130.776 73.5966C131.093 73.5725 131.388 73.6994 131.431 73.8816C131.475 74.063 131.253 74.2293 130.936 74.2531L130.936 74.2525Z" fill="#52525B"/>
<g clip-path="url(#clip0_15_1625)">
<path d="M168.309 102.665L177.618 102.719L177.648 97.4112" stroke="#A1A1AA" stroke-width="1.89107" stroke-linecap="round" stroke-linejoin="round"/>
</g>
<g clip-path="url(#clip1_15_1625)">
<path d="M181.408 110.233L190.717 110.287L190.748 104.98" stroke="#A1A1AA" stroke-width="1.89107" stroke-linecap="round" stroke-linejoin="round"/>
</g>
<g clip-path="url(#clip2_15_1625)">
<path d="M194.507 117.802L203.816 117.855L203.847 112.548" stroke="#A1A1AA" stroke-width="1.89107" stroke-linecap="round" stroke-linejoin="round"/>
</g>
<g clip-path="url(#clip3_15_1625)">
<path d="M159.493 111.98L150.184 111.927L150.153 117.234" stroke="#A1A1AA" stroke-width="1.89107" stroke-linecap="round" stroke-linejoin="round"/>
</g>
<g clip-path="url(#clip4_15_1625)">
<path d="M172.592 119.549L163.283 119.495L163.252 124.802" stroke="#A1A1AA" stroke-width="1.89107" stroke-linecap="round" stroke-linejoin="round"/>
</g>
<g clip-path="url(#clip5_15_1625)">
<path d="M185.691 127.117L176.382 127.064L176.352 132.371" stroke="#A1A1AA" stroke-width="1.89107" stroke-linecap="round" stroke-linejoin="round"/>
</g>
<defs>
<clipPath id="clip0_15_1625">
<rect width="15.1286" height="15.1286" fill="white" transform="matrix(0.865865 0.500278 -0.871576 0.490261 174.932 93.649)"/>
</clipPath>
<clipPath id="clip1_15_1625">
<rect width="15.1286" height="15.1286" fill="white" transform="matrix(0.865865 0.500278 -0.871576 0.490261 188.031 101.218)"/>
</clipPath>
<clipPath id="clip2_15_1625">
<rect width="15.1286" height="15.1286" fill="white" transform="matrix(0.865865 0.500278 -0.871576 0.490261 201.131 108.786)"/>
</clipPath>
<clipPath id="clip3_15_1625">
<rect width="15.1286" height="15.1286" fill="white" transform="matrix(0.865865 0.500278 -0.871576 0.490261 152.956 106.011)"/>
</clipPath>
<clipPath id="clip4_15_1625">
<rect width="15.1286" height="15.1286" fill="white" transform="matrix(0.865865 0.500278 -0.871576 0.490261 166.055 113.579)"/>
</clipPath>
<clipPath id="clip5_15_1625">
<rect width="15.1286" height="15.1286" fill="white" transform="matrix(0.865865 0.500278 -0.871576 0.490261 179.154 121.148)"/>
</clipPath>
</defs>
</svg>
