<svg width="25" height="24" viewBox="0 0 25 24" fill="none" xmlns="http://www.w3.org/2000/svg">
<path fill-rule="evenodd" clip-rule="evenodd" d="M12.5 5.25083C11.9714 5.25083 11.448 5.35267 10.9597 5.55054C10.4714 5.7484 10.0277 6.03842 9.6539 6.40403C9.28014 6.76965 8.98366 7.20369 8.78138 7.68138C8.57911 8.15908 8.475 8.67107 8.475 9.18812C8.475 9.70517 8.57911 10.2172 8.78138 10.6949C8.98366 11.1726 9.28014 11.6066 9.6539 11.9722C10.0277 12.3378 10.4714 12.6278 10.9597 12.8257C11.448 13.0236 11.9714 13.1254 12.5 13.1254C13.5675 13.1254 14.5913 12.7106 15.3461 11.9722C16.1009 11.2338 16.525 10.2324 16.525 9.18812C16.525 8.14389 16.1009 7.14242 15.3461 6.40403C14.5913 5.66565 13.5675 5.25083 12.5 5.25083ZM10.775 14.2504C9.555 14.2504 8.38498 14.7244 7.52231 15.5683C6.65964 16.4122 6.175 17.5567 6.175 18.7501C6.175 19.3468 6.41732 19.9191 6.84865 20.341C7.27999 20.763 7.865 21 8.475 21H16.525C17.135 21 17.72 20.763 18.1513 20.341C18.5827 19.9191 18.825 19.3468 18.825 18.7501C18.825 17.5567 18.3404 16.4122 17.4777 15.5683C16.615 14.7244 15.445 14.2504 14.225 14.2504H10.775ZM18.618 10.7675C18.9836 9.40562 18.8642 7.96252 18.2796 6.6758C17.695 5.38908 16.6799 4.33543 15.4014 3.68828C15.8886 3.36263 16.443 3.14574 17.0254 3.05296C17.6077 2.96018 18.2039 2.99378 18.7715 3.1514C19.3391 3.30901 19.8643 3.58677 20.31 3.96501C20.7557 4.34325 21.111 4.81272 21.3506 5.34018C21.5902 5.86763 21.7083 6.44017 21.6966 7.01724C21.6849 7.59431 21.5436 8.16181 21.2828 8.67954C21.0219 9.19727 20.6479 9.65257 20.1872 10.0132C19.7265 10.3738 19.1904 10.631 18.6168 10.7664L18.618 10.7675ZM21.125 18.7501H21.7C22.31 18.7501 22.895 18.5131 23.3263 18.0911C23.7577 17.6692 24 17.0969 24 16.5002C24 15.3068 23.5154 14.1623 22.6527 13.3184C21.79 12.4746 20.62 12.0005 19.4 12.0005H18.135C17.9786 12.3001 17.7974 12.5868 17.5934 12.8577C18.6646 13.4438 19.5566 14.2989 20.1774 15.3346C20.7982 16.3704 21.1253 17.5494 21.125 18.7501ZM3.3 6.93824C3.29982 6.22141 3.4997 5.51814 3.87808 4.90427C4.25646 4.2904 4.79898 3.78922 5.44713 3.45478C6.09528 3.12035 6.82447 2.96534 7.55605 3.00649C8.28764 3.04764 8.99386 3.28338 9.59855 3.68828C8.31888 4.33403 7.30276 5.38756 6.71812 6.67475C6.13347 7.96195 6.01531 9.40575 6.38315 10.7675C5.50432 10.5606 4.72227 10.0704 4.16297 9.37571C3.60368 8.68106 3.2997 7.82247 3.3 6.93824ZM6.865 12.0005H5.6C4.38 12.0005 3.20998 12.4746 2.34731 13.3184C1.48464 14.1623 1 15.3068 1 16.5002C1 17.0969 1.24232 17.6692 1.67365 18.0911C2.10499 18.5131 2.69 18.7501 3.3 18.7501H3.875C3.87469 17.5494 4.20181 16.3704 4.82261 15.3346C5.4434 14.2989 6.33542 13.4438 7.40665 12.8577C7.20257 12.5868 7.02142 12.3001 6.865 12.0005Z" fill="black"/>
</svg>
