<svg width="25" height="24" viewBox="0 0 25 24" fill="none" xmlns="http://www.w3.org/2000/svg">
<path d="M10.7754 15H14.2246C15.2509 15 16.2323 15.3994 16.9531 16.1045C17.6733 16.809 18.0752 17.7609 18.0752 18.75C18.0752 19.1423 17.9158 19.5221 17.627 19.8047C17.3376 20.0878 16.9416 20.2499 16.5254 20.25H8.47461C8.0584 20.2499 7.66243 20.0878 7.37305 19.8047C7.08421 19.5221 6.9248 19.1423 6.9248 18.75C6.92484 17.7609 7.32666 16.809 8.04688 16.1045C8.76768 15.3994 9.74906 15 10.7754 15ZM5.59961 12.75H6.1875C5.37988 13.3436 4.69538 14.0888 4.17969 14.9492C3.62042 15.8823 3.27674 16.921 3.16602 17.9932C2.79944 17.9624 2.45645 17.8073 2.19824 17.5547C1.90938 17.2721 1.75 16.8924 1.75 16.5C1.75006 15.511 2.15188 14.559 2.87207 13.8545C3.59277 13.1496 4.57349 12.7501 5.59961 12.75ZM19.4004 12.75C20.4265 12.7501 21.4072 13.1496 22.1279 13.8545C22.8481 14.559 23.2499 15.511 23.25 16.5C23.25 16.8924 23.0906 17.2721 22.8018 17.5547C22.5433 17.8075 22.1999 17.9626 21.833 17.9932C21.7223 16.9211 21.3796 15.8823 20.8203 14.9492C20.3046 14.0888 19.6201 13.3436 18.8125 12.75H19.4004ZM12.5 6.00098C13.3738 6.00098 14.2083 6.34084 14.8213 6.94043C15.4337 7.5395 15.7754 8.34855 15.7754 9.18848C15.7753 10.0283 15.4336 10.8375 14.8213 11.4365C14.2084 12.0359 13.3737 12.375 12.5 12.375C12.0677 12.375 11.6398 12.2924 11.2412 12.1309C10.8429 11.9694 10.482 11.7331 10.1787 11.4365C9.87536 11.1398 9.63493 10.7879 9.47168 10.4023C9.30855 10.017 9.22466 9.60453 9.22461 9.18848C9.22461 8.77224 9.30845 8.35912 9.47168 7.97363C9.63493 7.58812 9.87537 7.23716 10.1787 6.94043C10.482 6.64375 10.8428 6.40757 11.2412 6.24609C11.6398 6.0846 12.0677 6.00098 12.5 6.00098ZM17.1484 3.79297C17.623 3.7181 18.1091 3.74569 18.5713 3.87402C19.0349 4.00282 19.4631 4.22982 19.8252 4.53711C20.1871 4.84438 20.4746 5.22474 20.668 5.65039C20.8613 6.07609 20.9557 6.53749 20.9463 7.00195C20.9369 7.46635 20.8238 7.92379 20.6133 8.3418C20.4026 8.75997 20.0992 9.12964 19.7246 9.42285C19.673 9.46326 19.6193 9.50089 19.5654 9.53809C19.6203 8.4551 19.4183 7.3675 18.9629 6.36523C18.5709 5.50246 18.0065 4.73436 17.3115 4.10156C17.2531 4.04838 17.2081 3.98229 17.1797 3.91504C17.1592 3.8664 17.1512 3.82438 17.1484 3.79297ZM7.51367 3.75488C7.62651 3.76123 7.73871 3.77447 7.84961 3.79199C7.84678 3.82344 7.83989 3.86555 7.81934 3.91406C7.79081 3.98139 7.74601 4.04739 7.6875 4.10059C6.99193 4.7331 6.42721 5.50117 6.03516 6.36426C5.64127 7.23147 5.4358 8.1635 5.42383 9.10059C5.42275 9.17929 5.40348 9.25686 5.37207 9.32422C5.34724 9.37738 5.31754 9.41428 5.29395 9.43848C5.09188 9.28293 4.90764 9.1047 4.74707 8.90527C4.29418 8.34274 4.04956 7.64988 4.0498 6.93848L4.05762 6.72266C4.09243 6.22073 4.24889 5.73218 4.5166 5.29785C4.82258 4.80144 5.26258 4.39376 5.79102 4.12109C6.31947 3.84844 6.91527 3.72128 7.51367 3.75488Z" stroke="#A1A1AA" stroke-width="1.5"/>
</svg>
