<svg width="23" height="22" viewBox="0 0 23 22" fill="none" xmlns="http://www.w3.org/2000/svg">
<path d="M11.6212 13.5083C12.9605 13.5083 14.0462 12.4226 14.0462 11.0833C14.0462 9.74403 12.9605 8.65833 11.6212 8.65833C10.2819 8.65833 9.19617 9.74403 9.19617 11.0833C9.19617 12.4226 10.2819 13.5083 11.6212 13.5083Z" stroke="#A1A1AA" stroke-width="1.5"/>
<path d="M13.0478 3.12287C12.7512 3 12.3745 3 11.6211 3C10.8677 3 10.4911 3 10.1944 3.12287C9.99812 3.20411 9.81978 3.32325 9.66957 3.47346C9.51936 3.62367 9.40022 3.80201 9.31898 3.99829C9.24461 4.17855 9.2147 4.38952 9.20338 4.69588C9.19812 4.91731 9.13678 5.13378 9.0251 5.32505C8.91342 5.51632 8.75505 5.67614 8.5648 5.78956C8.37145 5.89769 8.15384 5.955 7.93231 5.95613C7.71078 5.95726 7.49259 5.90217 7.29815 5.79602C7.02655 5.65214 6.83012 5.57292 6.63531 5.54706C6.21039 5.49118 5.78066 5.60631 5.4406 5.86715C5.18678 6.06358 4.99763 6.38934 4.62095 7.04166C4.24427 7.69399 4.05512 8.01974 4.01389 8.33903C3.98611 8.54957 4.00008 8.76351 4.05501 8.96864C4.10993 9.17377 4.20473 9.36607 4.33399 9.53456C4.45362 9.68976 4.62095 9.8199 4.88042 9.98318C5.26276 10.2233 5.5085 10.6323 5.5085 11.0833C5.5085 11.5344 5.26276 11.9434 4.88042 12.1827C4.62095 12.3467 4.45282 12.4769 4.33399 12.6321C4.20473 12.8006 4.10993 12.9929 4.05501 13.198C4.00008 13.4031 3.98611 13.6171 4.01389 13.8276C4.05592 14.1461 4.24427 14.4727 4.62014 15.125C4.99763 15.7773 5.18597 16.1031 5.4406 16.2995C5.60908 16.4288 5.80138 16.5236 6.00652 16.5785C6.21165 16.6334 6.42559 16.6474 6.63612 16.6196C6.83012 16.5937 7.02655 16.5145 7.29815 16.3706C7.49259 16.2645 7.71078 16.2094 7.93231 16.2105C8.15384 16.2116 8.37145 16.269 8.5648 16.3771C8.95523 16.6034 9.18722 17.0197 9.20338 17.4708C9.2147 17.7779 9.2438 17.9881 9.31898 18.1684C9.40022 18.3646 9.51936 18.543 9.66957 18.6932C9.81978 18.8434 9.99812 18.9625 10.1944 19.0438C10.4911 19.1666 10.8677 19.1666 11.6211 19.1666C12.3745 19.1666 12.7512 19.1666 13.0478 19.0438C13.2441 18.9625 13.4224 18.8434 13.5726 18.6932C13.7229 18.543 13.842 18.3646 13.9232 18.1684C13.9976 17.9881 14.0275 17.7779 14.0388 17.4708C14.055 17.0197 14.287 16.6026 14.6774 16.3771C14.8708 16.269 15.0884 16.2116 15.3099 16.2105C15.5314 16.2094 15.7496 16.2645 15.9441 16.3706C16.2157 16.5145 16.4121 16.5937 16.6061 16.6196C16.8166 16.6474 17.0306 16.6334 17.2357 16.5785C17.4408 16.5236 17.6331 16.4288 17.8016 16.2995C18.0562 16.1039 18.2446 15.7773 18.6213 15.125C18.9979 14.4727 19.1871 14.1469 19.2283 13.8276C19.2561 13.6171 19.2421 13.4031 19.1872 13.198C19.1323 12.9929 19.0375 12.8006 18.9082 12.6321C18.7886 12.4769 18.6213 12.3467 18.3618 12.1835C18.1726 12.0682 18.0157 11.9068 17.9059 11.7144C17.796 11.522 17.7368 11.3049 17.7337 11.0833C17.7337 10.6323 17.9794 10.2233 18.3618 9.98399C18.6213 9.8199 18.7894 9.68976 18.9082 9.53456C19.0375 9.36607 19.1323 9.17377 19.1872 8.96864C19.2421 8.76351 19.2561 8.54957 19.2283 8.33903C19.1863 8.02055 18.9979 7.69399 18.6221 7.04166C18.2446 6.38934 18.0562 6.06358 17.8016 5.86715C17.6331 5.7379 17.4408 5.6431 17.2357 5.58817C17.0306 5.53325 16.8166 5.51928 16.6061 5.54706C16.4121 5.57292 16.2157 5.65214 15.9433 5.79602C15.7489 5.90203 15.5309 5.95704 15.3095 5.95591C15.0881 5.95478 14.8707 5.89754 14.6774 5.78956C14.4872 5.67614 14.3288 5.51632 14.2171 5.32505C14.1054 5.13378 14.0441 4.91731 14.0388 4.69588C14.0275 4.38871 13.9984 4.17855 13.9232 3.99829C13.842 3.80201 13.7229 3.62367 13.5726 3.47346C13.4224 3.32325 13.2441 3.20411 13.0478 3.12287Z" stroke="#A1A1AA" stroke-width="1.5"/>
</svg>
